<svg id="Layer_1" data-name="Layer 1" xmlns="http://www.w3.org/2000/svg" xmlns:xlink="http://www.w3.org/1999/xlink" viewBox="0 0 260 260"><defs><style>.cls-1{fill:url(#linear-gradient);}.cls-2{fill:url(#linear-gradient-2);}.cls-3{fill:url(#linear-gradient-3);}.cls-4{fill:url(#linear-gradient-4);}.cls-5,.cls-6,.cls-7{opacity:0.5;}.cls-5{fill:url(#linear-gradient-5);}.cls-6{fill:url(#linear-gradient-6);}.cls-7{fill:url(#linear-gradient-7);}</style><linearGradient id="linear-gradient" x1="439.01" y1="267.39" x2="471.71" y2="327.11" gradientUnits="userSpaceOnUse"><stop offset="0" stop-color="#ff985e"/><stop offset="1" stop-color="#fe5f85"/></linearGradient><linearGradient id="linear-gradient-2" x1="427.12" y1="331.58" x2="386.6" y2="374.24" gradientUnits="userSpaceOnUse"><stop offset="0" stop-color="#4996f2"/><stop offset="1" stop-color="#7c5be6"/></linearGradient><linearGradient id="linear-gradient-3" x1="349.91" y1="256.41" x2="342.72" y2="368.74" gradientUnits="userSpaceOnUse"><stop offset="0" stop-color="#37cddc"/><stop offset="0.23" stop-color="#69ace7"/><stop offset="0.48" stop-color="#988df1"/><stop offset="0.7" stop-color="#ba77f9"/><stop offset="0.88" stop-color="#cf69fd"/><stop offset="1" stop-color="#d764ff"/></linearGradient><linearGradient id="linear-gradient-4" x1="414.32" y1="209.5" x2="386.59" y2="263.53" gradientUnits="userSpaceOnUse"><stop offset="0" stop-color="#ff2cb2"/><stop offset="1" stop-color="#7b02f7"/></linearGradient><linearGradient id="linear-gradient-5" x1="445.18" y1="340.27" x2="460.49" y2="252.07" gradientUnits="userSpaceOnUse"><stop offset="0" stop-color="#1b1464"/><stop offset="1" stop-color="#e000ff" stop-opacity="0"/></linearGradient><linearGradient id="linear-gradient-6" x1="349.85" y1="348.2" x2="438.05" y2="356.21" xlink:href="#linear-gradient-5"/><linearGradient id="linear-gradient-7" x1="415.81" y1="206.98" x2="380.71" y2="274.56" gradientUnits="userSpaceOnUse"><stop offset="0" stop-color="#e000ff" stop-opacity="0"/><stop offset="1" stop-color="#1b1464"/></linearGradient></defs><title>Svg</title><path class="cls-1" d="M530,262.35l-37.54,37.53c-.55.51-1.08,1-1.62,1.55l-2.94,2.94c-.5.53-1,1-1.5,1.58,0,0,0-.05,0-.05l-17.85,17.85-.51.51a65.1,65.1,0,0,1-65.23,16.21,63.49,63.49,0,0,1-25.4-15.06c-.26-.24-.52-.51-.78-.77A34,34,0,0,0,424,324a7.23,7.23,0,0,0,.61-.63l.77-.77a63.36,63.36,0,0,0,15.06-25.41A65.06,65.06,0,0,0,424.26,232l40,40V249.22Z" transform="translate(-270 -170)"/><path class="cls-2" d="M428,364.25l22.74,0L437.66,430l-37.54-37.54-1.53-1.63-2.95-2.94c-.52-.5-1.05-1-1.59-1.49,0,0,.05,0,.06,0L375.75,368a65.09,65.09,0,0,1-16.22-65.21,63.38,63.38,0,0,1,15.07-25.41c.22-.22.45-.47.69-.69A34,34,0,0,0,376,324c.2.2.42.42.63.61s.52.53.78.77a63.49,63.49,0,0,0,25.4,15.06A65.1,65.1,0,0,0,468,324.26Z" transform="translate(-270 -170)"/><path class="cls-3" d="M423.4,275.36A34,34,0,0,0,376,276c-.24.25-.48.48-.69.71s-.47.47-.69.69a63.38,63.38,0,0,0-15.07,25.41A65.09,65.09,0,0,0,375.75,368l-40-40v22.76L270,337.65l37.54-37.53c.57-.51,1.09-1,1.63-1.55l2.94-2.93c.5-.54,1-1.05,1.49-1.59a.61.61,0,0,1,0,.06l17.86-17.85.51-.51a65.09,65.09,0,0,1,65.22-16.22,63.67,63.67,0,0,1,25.4,15.06C422.89,274.83,423.16,275.1,423.4,275.36Z" transform="translate(-270 -170)"/><path class="cls-4" d="M440.47,297.22a63.36,63.36,0,0,1-15.06,25.41l-.77.77A34,34,0,0,0,424,276c-.2-.2-.41-.42-.63-.61s-.51-.53-.77-.77a63.67,63.67,0,0,0-25.4-15.06A65.09,65.09,0,0,0,332,275.75l40-40H349.23L362.34,170l37.54,37.54,1.55,1.63,2.94,2.94c.53.5,1.05,1,1.58,1.49,0,0,0,0-.05,0l17.85,17.86.51.51A65.06,65.06,0,0,1,440.47,297.22Z" transform="translate(-270 -170)"/><path class="cls-5" d="M530,262.35l-37.54,37.53c-.55.51-1.08,1-1.62,1.55l-2.94,2.94c-.5.53-1,1-1.5,1.58,0,0,0-.05,0-.05l-17.85,17.85-.51.51a65.1,65.1,0,0,1-65.23,16.21,63.49,63.49,0,0,1-25.4-15.06c-.26-.24-.52-.51-.78-.77A34,34,0,0,0,424,324a7.23,7.23,0,0,0,.61-.63l.77-.77a63.36,63.36,0,0,0,15.06-25.41A65.06,65.06,0,0,0,424.26,232l40,40V249.22Z" transform="translate(-270 -170)"/><path class="cls-6" d="M428,364.25l22.74,0L437.66,430l-37.54-37.54-1.53-1.63-2.95-2.94c-.52-.5-1.05-1-1.59-1.49,0,0,.05,0,.06,0L375.75,368a65.09,65.09,0,0,1-16.22-65.21,63.38,63.38,0,0,1,15.07-25.41c.22-.22.45-.47.69-.69A34,34,0,0,0,376,324c.2.2.42.42.63.61s.52.53.78.77a63.49,63.49,0,0,0,25.4,15.06A65.1,65.1,0,0,0,468,324.26Z" transform="translate(-270 -170)"/><path class="cls-7" d="M440.47,297.22a63.36,63.36,0,0,1-15.06,25.41l-.77.77A34,34,0,0,0,424,276c-.2-.2-.41-.42-.63-.61s-.51-.53-.77-.77a63.67,63.67,0,0,0-25.4-15.06A65.09,65.09,0,0,0,332,275.75l40-40H349.23L362.34,170l37.54,37.54,1.55,1.63,2.94,2.94c.53.5,1.05,1,1.58,1.49,0,0,0,0-.05,0l17.85,17.86.51.51A65.06,65.06,0,0,1,440.47,297.22Z" transform="translate(-270 -170)"/></svg>